<?xml version="1.0" ?><svg viewBox="0 0 512 512" xmlns="http://www.w3.org/2000/svg"><title/><g id="solid"><path d="M472,24a16,16,0,0,0-16,16v72H400V72a16,16,0,0,0-32,0v40H296a16,16,0,0,0-16,16v64H232V128a16,16,0,0,0-16-16H144V72a16,16,0,0,0-32,0v40H56V40a16,16,0,0,0-32,0v88a16,16,0,0,0,16,16H200v48h2a50.011,50.011,0,0,0-46,30.381A50.011,50.011,0,0,0,110,192H80v14a50,50,0,0,0,50,50h22V374a50,50,0,0,0,50,50h6v16a48,48,0,0,0,48,48h0a48,48,0,0,0,48-48V424h6a50,50,0,0,0,50-50V256h22a50,50,0,0,0,50-50V192H402a50.011,50.011,0,0,0-46,30.381A50.011,50.011,0,0,0,310,192h2V144H472a16,16,0,0,0,16-16V40A16,16,0,0,0,472,24ZM280,440a24,24,0,1,1-24-24A24,24,0,0,1,280,440Z" style="fill:#3b3b3b"/></g></svg>