<svg viewBox="0 0 256 256" xmlns="http://www.w3.org/2000/svg"><path fill="none" d="M0 0h256v256H0z"></path><path d="M77.7 43.6a8.1 8.1 0 0 1 4.4-10.5 7.9 7.9 0 0 1 10.4 4.4l7.7 18.4a8.1 8.1 0 0 1-4.3 10.5 8.5 8.5 0 0 1-3.1.6 8.2 8.2 0 0 1-7.4-4.9Zm-56.2 64.9 18.4 7.7a8.5 8.5 0 0 0 3.1.6 8 8 0 0 0 3.1-15.4l-18.5-7.7a8.1 8.1 0 0 0-10.5 4.4 7.9 7.9 0 0 0 4.4 10.4Zm191.5 8.3a8.5 8.5 0 0 0 3.1-.6l18.4-7.7a7.9 7.9 0 0 0 4.4-10.4 8.1 8.1 0 0 0-10.5-4.4l-18.5 7.7a8 8 0 0 0 3.1 15.4Zm-52.9-50.4a8.5 8.5 0 0 0 3.1.6 8.2 8.2 0 0 0 7.4-4.9l7.7-18.5a8.1 8.1 0 0 0-4.4-10.5 7.9 7.9 0 0 0-10.4 4.4l-7.7 18.4a8.1 8.1 0 0 0 4.3 10.5ZM240 152h-44.5a70.1 70.1 0 0 0 .5-8 68 68 0 0 0-136 0 70.1 70.1 0 0 0 .5 8H16a8 8 0 0 0 0 16h224a8 8 0 0 0 0-16Zm-32 40H48a8 8 0 0 0 0 16h160a8 8 0 0 0 0-16Z" fill="#f9f5d7" class="fill-000000"></path></svg>